PathFileType	4	(X/Y/Z)	C:/Users/beibeiliu/ov580/test_trc/User3\sequence.11_training_dense_right.trc
DataRate	CameraRate	NumFrames	NumMarkers	Units	OrigDataRate	OrigDataStartFrame	OrigNumFrames
120	120	10	19	mm	120	1	56
Frame#	Time	ThumbCMC			ThumbMCP			ThumbIP			ThumbTip			IndexMCP			IndexPIP			IndexTip			MiddleMCP			MiddlePIP			MiddleTip			RingMCP			RingPIP			RingTip			PinkyMCP			PinkyPIP			PinkyTip			BackHand1			BackHand2			BackHand3	
		X0	Y0	Z0	X1	Y1	Z1	X2	Y2	Z2	X3	Y3	Z3	X4	Y4	Z4	X5	Y5	Z5	X6	Y6	Z6	X7	Y7	Z7	X8	Y8	Z8	X9	Y9	Z9	X10	Y10	Z10	X11	Y11	Z11	X12	Y12	Z12	X13	Y13	Z13	X14	Y14	Z14	X15	Y15	Z15	X16	Y16	Z16	X17	Y17	Z17	X18	Y18	Z18	
0	0	114.47	58.1253	21.4864	91.656	50.9514	-6.97076	84.1892	45.3513	-37.081	85.7873	38.6524	-60.0073	121.96	86.7494	-50.6035	109.138	74.0654	-78.3531	96.315	58.352	-92.6762	144.231	81.6395	-59.6972	128.674	71.1044	-86.0795	115.813	40.9902	-102.169	159.68	70.2311	-56.4343	150.779	58.3726	-83.0629	138.379	31.0937	-94.8107	176.396	55.3839	-47.1321	172.958	45.6726	-71.7527	162.39	27.4779	-85.9424	172.08	73.1625	-1.7597	175.591	66.8221	29.1772	143.895	81.4642	19.5402	
1	0.00833333	113.519	64.0789	12.7043	97.2302	54.297	-9.5189	86.6826	49.4941	-41.5807	82.7477	40.8555	-62.3621	123.386	90.3038	-54.5254	109.184	80.3846	-82.6579	101.253	58.5484	-99.1666	143.193	87.4906	-61.5569	129.522	74.2705	-92.8154	118.003	45.4107	-108.153	159.169	76.4823	-61.4732	158.538	63.816	-85.3478	140.816	38.4086	-99.4801	177.803	60.4097	-49.0889	175.552	51.677	-75.895	160.779	35.1956	-90.2829	172.766	77.4638	-5.3534	176.348	71.0538	24.8533	144.405	88.2038	12.7594	
2	0.0166667	113.918	64.4373	15.4475	99.3922	55.8304	-14.2297	86.5089	50.4821	-42.9502	87.2057	43.2895	-64.7991	125.43	91.3661	-57.6535	111.472	83.7439	-82.3538	105.107	62.4729	-100.816	144.521	88.8868	-68.9315	132.748	76.956	-95.4091	121.801	46.5316	-112.221	164.468	77.3903	-62.7299	157.978	68.3669	-87.0234	145.93	41.9143	-102.13	180.409	63.952	-52.0911	179.566	54.562	-75.2581	168.193	40.278	-91.8306	175.146	79.6099	-8.6585	180.754	73.8828	19.8762	147.744	89.2257	11.4592	
3	0.025	114.48	64.9029	10.791	98.3219	55.233	-13.5463	89.34	50.4907	-46.015	86.8984	42.0424	-67.9533	125.531	90.9914	-57.9968	113.112	79.5056	-88.0411	108.798	59.6475	-104.741	150.857	87.1425	-69.5994	138.961	74.2937	-99.031	128.234	46.6957	-114.289	165.239	78.5734	-65.6419	160.838	65.9979	-92.5073	148.363	42.3322	-105.176	182.862	63.1748	-52.0998	182.847	55.838	-74.6567	171.561	37.5005	-96.3346	174.464	82.1102	-9.74473	180.056	72.337	20.6013	144.833	90.0651	6.08644	
4	0.0333333	115.938	64.1095	6.66374	101.857	53.4682	-16.7879	90.2872	47.9564	-46.4236	88.6283	39.267	-69.8678	129.368	86.4601	-65.9585	116.892	78.5254	-90.4156	113.02	57.2891	-109.036	150.19	85.1545	-69.2125	140.922	71.4135	-102.355	130.576	46.9558	-119.381	168.49	73.8038	-63.7974	162.488	64.0679	-95.6851	153.756	39.9977	-112.154	188.042	58.2907	-52.1001	187.153	52.0637	-81.1453	178.784	34.5786	-98.9986	177.136	77.993	-10.4954	185.528	72.4552	17.2636	152.025	85.3971	5.03698	
5	0.0416667	118.014	61.4346	-0.207918	104.869	50.0489	-21.2531	91.4159	42.0716	-44.6669	86.1869	33.2688	-67.7007	128.445	80.4366	-71.1906	123.151	71.0541	-99.8769	110.296	53.5642	-119.717	155.859	78.9496	-76.4811	149.989	68.9833	-107.618	138.503	45.7167	-128.186	171.246	70.4501	-72.6268	173.201	61.9801	-99.3002	163.266	42.3196	-117.855	194.428	55.2658	-58.8779	195.634	50.7013	-80.5791	194.378	32.0344	-105.476	182.286	74.5805	-20.1306	183.652	73.5041	8.32085	152.36	84.187	-6.62474	
6	0.05	120.875	55.5317	-7.79617	101.076	43.9066	-25.141	84.1588	33.1535	-49.7624	76.776	20.984	-67.3913	131.462	69.352	-81.2536	120.461	63.1723	-109	119.666	50.0365	-131.48	157.248	70.7425	-86.396	155.278	62.0502	-116.305	151.049	42.1842	-143.089	180.716	63.2411	-79.5777	183.39	57.2386	-105.537	181.471	41.3923	-128.454	197.21	50.1539	-60.9145	209.186	43.3244	-84.7401	213.016	30.4433	-108.36	179.738	72.8918	-26.2499	181.231	73.9008	1.50296	149.691	79.1887	-17.1072	
7	0.0583333	121.567	48.9008	-11.2254	103.239	34.6752	-30.5106	85.7467	21.6443	-50.8713	74.2241	8.93718	-67.9169	132.964	57.63	-89.2122	127.298	51.3845	-117.975	121.344	44.9147	-142.014	164.54	59.5582	-95.2809	163.386	54.1702	-124.175	165.882	41.8432	-156.387	187.577	54.11	-85.714	193.641	51.2852	-110.418	193.016	43.3988	-134.471	203.366	43.4833	-63.7245	214.934	39.5138	-83.3746	229.753	32.3013	-105.329	181.191	67.9754	-39.0079	182.612	72.6293	-5.36443	148.414	73.308	-24.3854	
8	0.0666667	127.748	40.7624	-22.5547	107.572	26.0322	-35.0976	91.2896	12.9677	-52.807	76.6911	-0.249536	-66.6859	140.81	47.8566	-96.1328	132.313	45.8729	-120.967	129.692	43.2497	-142.435	171.796	53.5437	-98.059	172.561	50.791	-129.909	172.561	46.6844	-155.181	191.009	48.0165	-85.566	198.985	46.99	-109.923	207.251	42.9698	-138.813	212.061	37.2916	-67.6608	223.261	32.4518	-87.0138	240.529	27.5703	-100.634	189.401	61.5948	-42.2326	188.711	66.9712	-13.6004	155.298	65.2409	-30.0397	
9	0.075	127.306	40.3462	-21.3433	109.467	22.1431	-38.3828	92.5256	9.03161	-55.2813	79.0849	-4.86573	-71.0027	146.204	45.3975	-98.9758	134.53	42.3314	-120.179	131.46	38.996	-147.894	171.793	52.1698	-102.816	175.19	49.2905	-132.126	174.856	45.3462	-158.675	195.673	45.164	-87.3634	202.393	44.1075	-112.148	210.473	38.7179	-139.053	217.787	33.5473	-68.4101	228.71	28.2349	-86.8065	241.934	23.6459	-104.34	186.685	56.9307	-42.6193	190.69	63.9864	-17.2834	159.507	64.627	-32.8519	
